<?xml version="1.0" standalone="no"?><!DOCTYPE svg PUBLIC "-//W3C//DTD SVG 1.1//EN" "http://www.w3.org/Graphics/SVG/1.1/DTD/svg11.dtd"><svg t="1749647994752" class="icon" viewBox="0 0 1025 1024" version="1.1" xmlns="http://www.w3.org/2000/svg" p-id="5911" xmlns:xlink="http://www.w3.org/1999/xlink" width="200.1953125" height="200"><path d="M512.950615 0c282.64708 0 512.950615 230.303535 512.950615 512.950615 0 281.694759-230.303535 511.049075-512.950615 511.049075v-194.140144c80.89457 0 162.73836-31.404886 224.595812-93.265441 122.765684-123.714903 122.765684-324.518194 0-448.236199-61.857452-61.860554-143.701241-92.313119-224.595812-92.313119V0z m0 0v196.044787c-80.891468 0-162.732156 30.452565-224.592709 92.313119-122.765684 123.714903-122.765684 324.518194 0 448.236199 61.857452 61.860554 143.701241 93.26544 224.592709 93.265441v194.140144C230.303535 1023.99969 0 794.645374 0 512.950615 0 230.303535 230.303535 0 512.950615 0z" fill="#004098" p-id="5912"></path><path d="M443.480798 423.49446c107.537851-108.490172 236.01436-156.075213 285.500942-107.537851 26.646382 27.595602 24.74174 77.085285 0 135.136554h-23.792521c31.404886-57.10205 39.017252-105.63631 17.129374-127.524188-39.017252-39.017252-156.072111 14.275512-259.806881 118.00718l-1.90154 1.904643c-8.564687-4.758504-17.129374-8.567789-26.646383-10.46933a45.112729 45.112729 0 0 1 9.517009-9.517008zM316.902726 661.413462v-14.275512c1.904642-26.646382 11.421651-59.00359 28.551025-92.313119 3.806183 6.663147 9.517008 13.323191 15.227834 18.084797-31.404886 58.051269-39.969574 106.585529-17.129374 129.425729 39.017252 39.017252 155.11979-15.227834 259.803779-118.962603 2.853862-2.853862 5.710825-6.660045 8.567789-9.513906h36.16339c-7.615468 9.517008-17.132476 19.034017-25.697163 28.551024-108.490172 107.537851-236.963579 156.072111-285.500942 106.58553-12.37087-12.37087-18.081695-28.547923-19.986338-47.585042z" fill="#004098" p-id="5913"></path><path d="M415.882094 440.623834c39.017252 0 71.37446 32.357208 71.37446 72.326781 0 25.697163-13.323191 48.537363-34.258748 60.908233 2.853862 2.853862 5.707723 6.660045 9.513906 9.517008 21.89098 21.887878 43.778858 40.921895 66.619058 58.051269-7.612366 5.707723-15.227834 11.421651-21.887878 16.180155-21.89098-16.180155-42.826537-34.26185-63.762094-55.197408-6.663147-6.663147-12.373972-12.373972-18.084798-19.034016-2.853862 0.952321-6.660045 0.952321-9.513906 0.952321-39.972676 0-72.326781-32.357208-72.326781-71.377562 0-11.418549 2.853862-21.887878 7.612366-31.404886-20.938659-39.017252-33.309529-76.132964-34.261851-106.58553v-8.564687c0.952321-20.938659 7.615468-38.068033 19.986338-50.438903 35.211069-35.214171 111.347136-19.986338 191.286283 31.404887-6.660045 4.758504-14.275512 9.517008-20.938659 14.275512-72.326781-47.585041-137.038095-65.666737-163.687579-38.068033-23.792521 22.840199-13.323191 76.132964 22.840199 137.041197 12.373972-12.37087 30.455667-19.986338 49.489684-19.986338z m142.74892 222.694271c72.326781 48.534261 137.041197 65.663635 163.687579 39.017252 21.89098-22.840199 14.275512-71.377562-17.129374-128.476509h23.792521c24.744842 58.051269 26.646382 108.490172 0 135.136554-35.211069 35.214171-111.344033 20.938659-192.238604-30.452565 7.615468-4.758504 14.275512-10.469329 21.89098-15.227834z m0-295.973374a673.899107 673.899107 0 0 1 63.762094 56.149729c8.567789 8.564687 18.084797 18.081695 25.697163 27.598703h-36.16339c-2.853862-2.853862-5.710825-5.707723-8.564687-9.517008-21.89098-21.887878-44.73118-40.921895-66.619058-58.051269 7.615468-5.710825 14.275512-11.421651 21.887878-16.180155z" fill="#F08300" p-id="5914"></path><path d="M300.728776 466.320997h28.551024v54.245086c0 5.707723-0.952321 10.466227-2.853861 15.224732-0.955423 4.758504-3.809285 8.564687-7.615468 12.373972s-7.612366 5.707723-11.421651 7.612365c-5.707723 1.904642-11.418549 2.853862-19.030914 2.853862-4.758504 0-9.517008 0-15.227834-0.949219-4.758504-0.952321-9.517008-1.904642-12.37087-3.809285-3.809285-1.90154-6.663147-3.806183-9.517008-7.612366-3.806183-3.806183-5.707723-6.660045-6.663147-10.469329-1.90154-5.707723-1.90154-10.466227-1.90154-15.224732v-54.245086h27.598703v55.194305c0 5.710825 0.949219 9.517008 3.806183 11.421651 2.853862 2.853862 6.660045 4.758504 11.418549 4.758504s8.564687-1.904642 11.421651-3.806183c2.853862-2.853862 3.806183-6.663147 3.806183-12.373972v-55.194305z" fill="#004098" p-id="5915"></path><path d="M439.671513 528.178449l15.230935 1.904642c-1.904642 9.513906-6.663147 16.177053-13.326293 20.935557-6.660045 4.758504-15.227834 7.612366-25.694061 7.612366h-0.952321v-12.37087h0.952321c5.707723 0 10.466227-0.952321 14.275512-3.806183s7.612366-7.615468 9.513907-14.275512z m-24.74174-61.857452c12.37087 0 21.887878 3.806183 29.500244 12.37087 7.615468 7.612366 11.421651 19.034017 11.421651 33.309529v4.758504H414.926671v-12.373972h24.74174c-0.949219-7.612366-2.853862-13.323191-5.707724-17.129374-4.758504-5.707723-10.469329-8.564687-18.084797-8.564687h-0.949219v-12.37087z m0 92.310017c-12.37087 0-21.887878-3.806183-29.500244-11.418549-7.615468-8.564687-11.421651-19.034017-11.421651-34.26185 0-14.275512 3.806183-25.694061 11.418549-34.258748 7.615468-7.612366 17.132476-12.37087 29.500244-12.37087v12.37087c-6.660045 0-12.367768 2.853862-17.126272 6.660045-3.809285 4.758504-6.663147 11.421651-7.615468 19.034016h24.744842v12.37087h-25.694061c0.949219 9.517008 3.806183 17.132476 8.561585 21.89098s10.469329 7.612366 17.132476 7.612366v12.37087z" fill="#FFFFFF" p-id="5916"></path><path d="M502.484388 527.226128l26.646382-0.952322c0 3.809285 0.952321 7.615468 2.853862 9.517009 2.853862 3.806183 6.663147 5.710825 12.373972 5.710825 3.806183 0 6.660045-0.952321 9.513906-2.853862 1.904642-1.904642 2.853862-3.809285 2.853862-6.663146 0-1.904642-0.949219-4.758504-2.853862-5.707724-1.90154-1.904642-6.660045-3.809285-14.272411-5.710825-12.373972-2.853862-20.938659-6.663147-25.697163-10.46933-5.707723-4.758504-8.564687-10.469329-8.564687-17.129374 0-4.758504 1.904642-9.517008 4.758504-13.323191 1.904642-3.806183 6.663147-7.615468 11.421651-9.517008 5.707723-2.853862 13.323191-3.806183 21.887878-3.806183 11.418549 0 19.983236 1.90154 26.646383 6.660045 5.707723 3.806183 9.517008 10.469329 10.469329 19.986337l-25.697163 1.901541c-0.952321-4.758504-2.853862-7.612366-4.758504-9.517008-1.90154-0.949219-4.758504-1.90154-9.517008-1.901541-2.853862 0-4.758504 0-6.660045 1.901541-1.904642 0.952321-2.853862 2.853862-2.853862 4.758504 0 0.952321 0.949219 2.853862 1.901541 3.809285 1.90154 0.949219 4.758504 1.90154 9.517008 2.853861 12.37087 2.853862 20.938659 5.707723 25.694061 8.564687 5.707723 2.853862 9.517008 5.707723 11.421651 9.517009 2.853862 3.806183 3.806183 8.564687 3.806183 13.323191 0 5.707723-1.904642 11.421651-4.758504 16.177053s-7.612366 8.567789-13.323191 10.469329c-5.707723 2.853862-12.37087 3.806183-20.938659 3.806183-15.224732 0-25.694061-2.853862-32.354106-8.561585-5.710825-5.710825-8.567789-13.326293-9.517008-22.843301zM594.794405 466.320997h86.602293v22.840199h-29.500244v69.469818h-28.551025v-69.469818h-28.551024v-22.840199zM738.498748 466.320997c20.938659 0 39.017252 14.27241 44.728077 33.306427h-23.79252c-4.758504-6.660045-12.37087-11.418549-20.938659-11.418549-13.320089 0-24.74174 11.418549-24.74174 24.74174s11.421651 23.792521 24.744842 23.792521c8.561585 0 16.177053-4.758504 20.938659-11.418549h23.789418c-5.707723 19.030915-23.792521 33.306427-44.731179 33.306427-25.694061 0-46.629618-20.935557-46.629618-45.680399 0-25.694061 20.938659-46.629618 46.63272-46.629618z" fill="#004098" p-id="5917"></path><path d="M606.216055 957.383734v-8.564687c8.564687-0.952321 16.177053-10.469329 10.46933-19.034017-2.853862-3.806183-5.710825-0.952321-5.710826 2.853862 0 2.853862-2.853862 5.710825-2.853861 5.710825s-0.952321 0-1.904643-0.952321v-19.983236c2.853862 0 6.660045 0 12.37087 1.901541 15.227834 6.663147 13.323191 34.26185-10.466227 38.068033h-1.904643z m0-41.874216v-13.323191c4.758504-2.853862 7.612366-3.806183 7.612366-3.806183 8.564687-8.564687 31.404886-7.615468 32.357208 5.707723 0 5.710825 0 11.421651-8.564687 12.373972-9.517008 0.952321-6.660045-7.615468-6.660045-7.615468h3.806183s1.90154-2.853862 0.952321-5.707723c-0.952321-1.904642-4.758504-1.904642-14.275512 0-6.663147 1.90154-12.373972 8.561585-15.230936 12.37087z m0-13.323191v13.323191c-0.952321 1.904642-1.904642 2.853862-1.904642 2.853862s0.952321 0 1.904642-0.94922v19.983236c-1.904642 0-3.806183-1.90154-4.758504-3.806183 0-4.758504-4.758504-2.853862-4.758504-2.853861s-2.853862 2.853862-1.904642 7.612365c0 5.707723 1.904642 7.612366 6.663146 9.517009 1.90154 0.952321 2.853862 0.952321 4.758504 0.952321v8.561585c-12.37087 1.904642-19.034017-1.90154-22.840199-8.561585v-21.89098c3.806183-11.418549 15.227834-19.983236 22.840199-24.74174z m-22.840199-3.806183v-0.952321h1.904642s-0.952321 0-1.904642 0.952321z m0-0.952321v0.952321c-1.904642 0.952321-6.663147 2.853862-9.517008 4.758504-4.758504 3.806183-8.564687 13.323191-8.564687 13.323191l-3.806183-10.469329-17.132476-0.952322-7.612366 10.46933s7.615468 0 13.323191 1.904642c6.663147 1.90154 9.517008 8.561585 9.517008 16.177053 0 6.660045-1.90154 13.323191-9.517008 20.938659-6.660045 6.660045-24.74174 8.561585-33.306427 2.853862-9.517008-4.758504-8.564687-19.034017-4.758504-24.744842 3.806183-6.660045 11.418549-4.758504 15.224732-3.806183 3.809285 1.904642 1.904642 7.612366 0.952321 11.418549-0.952321 2.853862-3.806183 2.853862-3.806183 2.853862s-1.904642-6.660045-2.853862-2.853862c-0.952321 4.758504 3.806183 7.615468 8.561585 8.567789 5.710825 0.949219 11.421651-1.904642 13.326293-6.663147 1.90154-5.707723 1.90154-11.418549-2.853861-16.177053s-21.89098-1.904642-21.890981-1.904642l20.938659-28.551025 43.775757 1.904643z m0 29.500244c-1.904642 8.564687-1.904642 16.180155 0 21.89098v-21.89098z m-108.490172 21.89098v-34.26185h1.901541c2.853862 0 4.758504 1.904642 4.758504 4.758504 0 1.904642 1.904642 1.904642 2.853861 0.952321 2.856964-1.904642 4.761606-11.421651-0.949219-15.227834-2.853862-1.90154-5.707723-2.853862-8.564687-2.853861v-9.517008c11.418549 0 22.840199 7.612366 23.792521 21.887878 0 12.37087-10.469329 26.646382-23.792521 34.26185z m-34.26185-57.10205l-4.758504 0.952322v5.707723l4.758504-6.660045z m34.26185 0.952322v9.517008c-5.710825-0.952321-11.421651 2.853862-12.373972 8.561585-0.949219 7.615468 4.758504 8.567789 3.809285 8.567789 0 0 4.758504-3.806183 8.561585-4.758504v34.258748c-3.803081 2.853862-8.561585 3.809285-12.37087 5.710825-14.27241 4.758504-20.935557 3.806183-26.646382 0.952321v-14.275512c1.904642-0.952321 2.853862-0.952321 4.758504 0 4.758504 0 0.952321 2.853862 1.904642 6.663147 0.952321 5.707723 13.323191 0.949219 19.983236-3.809285 5.710825-4.758504 8.567789-11.418549 8.567789-11.418549s-15.230936-4.758504-17.132476-12.37087c-2.853862-8.564687 0-23.792521 14.275512-26.646382 1.904642-0.952321 4.758504-0.952321 6.663147-0.952321z m-39.020354 0l-27.598704 3.806182 6.663147 8.564687-36.163391 53.292765h18.081695l39.017253-59.952809v-5.710825z m0 48.53426v14.275512l-2.853862-2.853861c-1.904642-3.809285-0.952321-7.615468 0.952321-10.46933 0.952321-0.952321 1.90154-0.952321 1.901541-0.952321zM104.683989 549.114006c0-0.949219 0.952321-0.949219 0.952321-1.901541 4.758504-3.806183 2.853862-8.564687 10.46933-7.612366 6.660045 0.949219 21.887878 0.949219 25.694061-3.809284 4.758504-4.758504 11.418549-21.887878 10.469329-31.404887s-3.809285-14.275512-9.517008-12.37087c-5.710825 0.952321-6.663147 15.227834-6.663147 21.887878 0 5.707723-2.853862 13.323191-8.561585 13.323192-1.907744 0-3.809285 0-4.761606-0.952322-2.853862-1.90154-1.904642-5.707723-2.853861-10.466227 0-6.663147 0.949219-12.373972-2.853862-13.323191-1.904642-0.952321-7.615468-1.904642-12.373972-4.758504v15.224731q0.952321 0 1.904642 0.952321c0 0.952321-0.952321 1.904642-0.952321 1.904643h-0.952321v33.306427z m-10.46933 5.710825h0.952322c6.663147 0.952321 6.663147-2.853862 9.517008-5.707723V515.804477c-1.904642 0-0.952321-1.904642-1.904643-0.952321v-1.904643h1.904643v-15.224732c-2.853862-0.952321-4.758504-2.853862-6.660045-3.809284l-3.809285-3.806183v19.034016l0.952322-0.952321c1.904642-0.952321 0.952321 0 1.904642 0.952321 0 0.952321-1.904642 3.806183-2.853862 4.758504v40.921895z m-22.840199-28.551025c1.904642 0 3.806183-0.949219 6.663147 0 3.806183 3.809285 9.517008 6.663147 8.561585 9.517009-0.949219 3.809285-0.949219 5.710825-4.755403 5.710825-2.853862 0.952321-6.663147 0-10.469329 0v4.758504c6.663147 2.853862 17.129374 7.612366 22.840199 8.564687v-40.921895h-1.90154c0-0.952321-0.952321-0.952321-0.952321-1.90154s-0.952321-0.952321 0.952321-2.853862h1.90154v-19.037118c-2.853862-2.853862-3.806183-4.758504-5.707723-9.517009-2.853862-5.707723-3.809285-10.466227-6.663147-10.466227-0.952321 0-5.707723 0.952321-10.469329 3.806183v9.517008c1.904642 0 2.853862 0.952321 5.710825 2.853862 4.758504 2.853862 10.469329 9.517008 9.517009 14.275512-1.904642 4.758504-2.853862 3.806183-8.564687 2.853862-1.904642-0.949219-3.806183-0.949219-6.663147-1.901541v24.744842z m-17.129374-4.758504s7.612366 8.567789 11.421651 6.663147c1.90154 0 3.806183-0.952321 5.707723-1.904643v-24.74174c-4.758504-1.904642-9.517008-3.806183-10.466227-4.758504l-3.809285-3.806183s-0.949219-4.758504 1.904642-5.710825c3.806183-1.904642 2.853862-2.853862 6.660045-3.806183 2.853862 0 4.758504-0.952321 5.710825 0v-9.517008c-1.90154 0.952321-4.758504 2.853862-7.612366 4.758504-6.663147 4.758504-14.275512 6.660045-14.275512 6.660045s-5.707723-1.90154-11.421651-2.853862c-6.660045 0-10.466227-1.904642-17.129374 1.90154s-8.561585 7.615468-8.561585 7.615468 9.513906-1.904642 12.37087 0c2.853862 0.952321 10.466227 6.660045 15.224732 10.466228 3.806183 3.809285 8.564687 9.517008 10.469329 13.323191 2.853862 4.758504 3.806183 5.710825 3.806183 5.710825z m17.129374 19.986338h-1.90154c-2.853862 0-2.853862 1.904642-2.853862 1.904642s1.90154 0.949219 4.755402 2.853862v-4.758504zM190.333961 313.099646c4.758504 1.904642 10.469329 4.758504 10.46933 4.758504s0-2.853862 2.853861-4.758504 9.517008-11.418549 12.373972-19.983236c2.853862-6.663147 0.949219-15.230936-1.904642-19.034017-2.853862-2.853862-11.421651-7.612366-15.227834-9.517008-3.806183-0.952321-5.707723-4.758504-4.758504-7.612366 0-2.853862 1.904642-7.615468 2.853862-9.517008s-1.90154-5.710825-1.901541-5.710825-0.952321 1.904642-4.758504 2.853861V278.840897c0.952321 0.952321 1.904642 0.952321 2.853862 0.952322 1.904642 2.853862 3.809285 3.806183 4.761606 5.707723 1.90154 0.952321 3.806183 3.809285 4.755402 7.615468 0 3.806183-2.853862 5.707723-5.707723 8.561585-2.853862 0-4.758504 0.955423-6.663147 0.955423v10.466228z m-74.231423-59.000488s2.853862 8.561585 2.853861 10.466227c0.955423 1.904642 0.955423 2.853862 0.955424 2.853862s4.758504-1.90154 7.612365-3.806183q2.853862-3.806183 4.758504-2.853862c1.904642 1.90154 9.517008 6.660045 14.275513 10.466228 6.660045 2.853862 8.564687 6.663147 13.323191 10.469329 3.806183 2.853862 10.469329 3.806183 10.46933 3.806183l-8.564687 18.084797s-0.952321 6.660045 0.949219 7.612366c0.952321 1.90154 5.710825 1.90154 10.469329 0 2.853862-0.952321 8.564687-0.952321 10.46933-0.952321 0.952321 0 3.806183 1.90154 6.660044 2.853862V302.633418c-1.90154 0.949219-2.853862 0.949219-4.758504 0.949219-2.853862 0-4.758504-0.949219-5.707723-1.90154-1.904642 0-2.853862-3.806183-2.853862-3.806183s0.949219-5.710825 1.901541-9.517008c1.90154-2.853862 2.853862-5.710825 4.758504-6.663147 0.952321-1.90154 1.90154-4.758504 2.853861-3.806183s2.853862 0.952321 3.806183 0.952321V244.579047c-3.806183 1.904642-7.612366 4.758504-9.517008 6.663147s-3.806183 6.660045-5.707723 9.517008c-1.904642 3.806183-3.806183 8.561585-6.663147 8.561585-1.90154 0.952321-6.660045-0.949219-9.517008-3.806183s-10.466227-12.37087-13.323191-15.224731-7.612366-5.707723-11.418549-8.564687c-5.707723-0.952321-9.517008 2.853862-12.373972 4.758504-2.853862 0.952321-5.707723 7.612366-5.707723 7.612365zM375.912521 125.619546v-12.37087c1.90154-0.952321 2.853862-1.904642 2.853861-1.904643 1.904642-0.949219 2.853862-3.806183 1.904643-5.707723q0-1.904642-2.853862-2.853862s-0.955423 0-1.904642-0.952321V53.292765c1.90154 2.853862 4.755402 8.564687 6.660044 10.469329 0.952321 2.853862 3.806183 4.758504 5.707723 8.564687 2.856964 2.853862 7.615468 5.707723 9.520111 8.564687q3.806183 3.806183 4.758504 6.663147c0.949219 2.853862 0.949219 4.758504 0 7.612366s-1.904642 7.612366-1.904643 10.469329c0 3.806183 2.853862 7.612366 2.853862 8.561585s3.809285 9.52011 3.809285 9.52011v1.901541c-0.952321 2.853862-1.904642 4.758504-1.904642 7.615468-0.952321 2.853862 0.952321 7.612366 1.904642 10.466227 0 3.806183 3.806183 15.227834 3.806183 16.180155 0.952321 0.949219 1.90154 4.758504 0.952321 4.758504s-0.952321-0.952321-2.853862-1.904642c-2.856964-1.904642-5.710825-6.660045-8.567789-11.418549-3.806183-3.809285-7.612366-13.326293-9.517008-17.132476-0.952321-2.853862-4.758504-8.561585-6.660044-10.466228-0.952321-1.904642-4.758504 0-8.564687 1.901541z m0-72.326781v48.537362c-1.904642 0-2.853862 1.90154-3.809285 3.806183 0 0-0.949219 4.758504 0.952321 6.660045 0.952321 0.952321 1.904642 0.952321 2.853861 0.952321v12.37087c-0.949219 0.952321-2.853862 0.952321-3.806182 0.952321l-1.901541 1.904643V93.262338h0.952321c5.707723-1.90154 2.853862-9.513906-0.952321-7.612366V45.680399c1.90154 0.952321 3.806183 0.952321 3.806183 0.952321s0.952321 1.90154 0.952321 3.806183c0 0.952321 0.949219 1.904642 0.949219 2.853862z m-19.034017 115.153318c1.90154-0.952321 0.952321-1.904642 0.952321-2.853862 0.949219-0.952321 1.90154-2.853862 0.949219-3.809284l-1.90154-5.707724v12.37087z m13.323191-122.765684v39.969573c-2.853862 0-3.806183 1.904642-3.806183 1.904643s-0.952321 2.853862 0.949219 4.758504c0.952321 0 1.904642 0.952321 2.853862 0.952321v35.207968c-1.90154 0.955423-3.803081 0.955423-6.660044-2.853862-4.758504-5.707723 0-7.612366 0-10.466228 0-1.904642 2.853862-9.517008 1.904642-11.42165-0.952321-2.853862-5.707723 0-7.612366-2.853862 0-0.952321-0.952321-1.904642-0.952321-2.853862v-20.938659h0.952321c1.90154-1.904642 10.466227-4.758504 10.466228-4.758504l1.904642-4.758504-8.564687-21.887878s0.952321-2.853862 3.806183-1.904643c0.952321 0.952321 2.853862 0.952321 4.758504 1.904643z m-51.391224 28.551025c-0.952321 5.707723-0.952321 11.418549 0 16.177053 1.904642 3.806183 2.853862 7.612366 4.758504 10.469329 0.952321 2.853862 0 4.758504 0 4.758504s-4.758504 4.758504-6.660045 7.612366c-2.853862 1.904642-7.615468 8.564687-9.517008 13.323191-0.952321 6.663147 0 11.421651 2.853862 10.46933 3.806183-0.952321 4.758504-2.853862 5.707723-5.707724 1.904642-2.856964 5.713927-5.713927 7.615468-2.856963 0.952321 1.90154-1.90154 11.418549-1.90154 14.275512s-0.952321 11.418549 0 14.275512c1.90154 1.90154 4.758504 5.707723 4.758504 6.660045 0.949219 0.952321 1.90154 3.806183 2.853861 1.904642 0.952321 0 2.853862-0.952321 2.853862-0.952321s1.904642-3.806183 2.853862-6.663146 2.856964-4.758504 2.856963-6.660045c0.952321-1.904642 2.853862-2.853862 4.758505-3.806183 1.904642 0 3.806183 2.853862 4.758504 4.758504 0 0.949219 2.853862 6.660045 2.853861 7.612366s-0.949219 0.952321-1.90154 1.904643-0.952321 1.90154-0.952321 2.853861h-1.901541s1.90154 0.952321 3.806183 3.806183c1.90154 0.952321 4.758504 2.853862 6.660045 0.952321 0.952321 0 0.952321-0.952321 0.952321-0.952321v-12.37087c-0.952321-2.853862-2.853862-5.707723-3.806183-6.663146-0.952321-3.806183-1.904642-6.660045-3.806183-9.517009-1.904642-3.806183-2.853862-6.660045-2.853861-6.660044s2.853862-10.469329 3.80308-15.227834 0.952321-6.660045 0.952322-10.466227c0-1.904642 0.952321-4.758504 0-6.663147s-0.952321-3.806183-0.952322-3.806183-1.90154 0.952321-1.90154 3.806183c-0.952321 2.853862-1.904642 9.517008-2.853862 12.37087 0 1.904642-0.952321 5.710825-1.904642 6.663147s-3.806183 1.90154-5.707724 0.952321c-1.904642 0-2.856964-0.952321-2.856963-0.952321s-0.952321-1.904642 0-3.806183c0-1.904642 0-2.853862-0.952321-3.809285 0-1.90154-1.904642-6.660045-3.806183-7.612366-0.952321 0-1.904642-2.853862-1.904643-3.806183s-3.806183-8.564687-2.853861-10.469329c0-2.853862 2.853862-11.418549 4.758504-14.275513s1.90154-7.612366 0.952321-10.466227c-0.952321-8.564687-5.710825-6.663147-9.517008-1.904643-1.904642 2.853862-2.853862 8.564687-2.853862 10.46933z m38.068033 2.853861v20.938659c-0.952321-2.853862-0.952321-6.663147-0.952321-7.615467 0-2.853862-1.904642-6.660045-1.904643-8.561585 0-2.856964 0.952321-3.809285 2.853862-4.761607zM666.171967 180.816953c0.952321 0 1.90154 0.952321 2.853861 0.952321 1.904642 0.952321 13.323191 4.758504 18.084798 5.707724s8.561585 1.904642 10.466227 0.955423c2.853862 0 6.660045-0.952321 3.806183-3.809285-2.853862-0.949219-5.707723-3.806183-8.564687-5.707723-3.806183-2.853862-10.469329-11.421651-13.323191-16.180155-2.853862-3.806183-5.707723-8.561585-5.707724-8.561585s0.949219-1.904642 1.901541-2.856964c1.90154 0 4.758504-7.612366 5.707723-12.37087 1.904642-3.809285 2.853862-8.567789 3.809285-10.469329 0-2.853862 0-4.758504-0.952321-5.707724 0-1.904642-0.952321-0.955423-2.853862-1.904642-0.952321 0-4.761606 0.949219-6.663146 0.949219-0.952321 0-1.904642-0.949219-1.904643-1.90154v-2.853862c0.952321-0.952321 3.809285-1.904642 7.615468-2.856964 4.758504-0.952321 10.466227 0 13.323191-2.853861 2.853862-3.809285 4.758504-7.615468 6.660045-10.46933 0.952321-1.904642 0.952321-3.806183 0.952321-4.758504s-0.952321-1.904642-0.952321-1.904643-1.90154 0-2.853862 0.952322c-0.952321 1.904642-6.663147 3.806183-7.612366 4.758504-1.904642 1.904642-4.758504 2.853862-6.663146 1.904642s-2.853862-0.952321-3.806183-1.904642c0-0.952321 1.90154-6.660045 2.853861-9.517008 0.952321-3.806183 1.904642-5.707723 1.904643-8.564688 0-3.806183-0.952321-4.758504-1.904643-5.707723s-2.853862 0-2.853861 0-1.904642 2.853862-2.853862 4.755402-2.856964 6.663147-3.809285 10.46933c-0.952321 1.904642-2.853862 8.564687-3.806183 10.469329 0 0.952321-0.952321 0.952321-2.853861 0.952321v31.404887h1.90154c2.853862 0 3.806183-0.952321 3.806183 0.949219-0.949219 1.904642-0.949219 3.809285-1.90154 5.710826-0.952321 0.952321-1.904642 2.853862-3.806183 3.806182V180.816953z m-16.180155-17.129374c3.809285 0 5.710825 0 6.663146 0.952321 1.90154 0.952321 2.853862 0.952321 2.853862 2.853862s0.952321 3.809285 1.904642 7.615468c0.952321 2.853862 2.853862 4.758504 4.758505 5.707723V144.653562h-1.904643c-1.90154-0.952321-2.853862-1.90154-2.853862-2.853861-0.952321-0.952321 0-2.853862 0.952322-3.806183 0-0.952321 0.949219-1.904642 0.949219-1.904643s1.904642-0.952321 2.853862-1.904642V102.779346h-2.853862c-1.90154 0.952321-4.758504 0-8.561585 0-1.904642 0.952321-2.856964 0.952321-4.761606 0.952322v7.612365q0.952321 0 1.904642 0.952322c0.952321 1.904642 0.952321 0 1.904643 1.904642 0 0.952321 1.90154 0.952321 1.90154 1.901541 0.952321 0 0.952321 0.952321 0.952321 1.904642s-1.904642 3.806183-2.853861 4.758504-2.853862 0.952321-3.809285 0v40.921895z m0-74.231424c0.952321-0.949219 0.952321-1.90154 1.904642-3.806183 0-0.952321 0-1.90154-1.904642-3.806183v7.612366z m-5.707724-13.323191s-4.758504 1.904642-6.663146 5.710825c-2.853862 3.806183-5.707723 12.37087-7.612366 14.275513-0.952321 0.952321-3.806183 0.952321-5.707723 0-2.856964-0.952321-7.615468-1.904642-7.615468 0s1.90154 1.904642 2.853862 4.758504 2.853862 11.418549-1.901541 18.081695c-5.710825 6.660045-6.663147 10.469329-11.421651 12.37087-3.806183 1.904642-7.612366 0.952321-9.517008 1.904643-1.90154 0-2.853862-0.952321-3.806183 0.952321s-1.904642 9.517008 1.904643 13.323191c2.853862 2.853862 4.758504 0.952321 6.660044 0.952321 2.853862 0 5.707723-0.952321 5.707724-0.952321s2.856964 2.853862 4.761606 3.806183c1.90154 1.904642 2.853862 1.904642 4.758504 0.952321s3.806183-7.615468 4.758504-10.469329c0.952321-1.904642 1.90154-6.660045 1.90154-6.660045s2.853862-2.853862 6.663147-4.758504c1.90154-1.904642 0.952321-0.952321 4.758504-3.809285 3.806183-1.90154 5.707723-3.806183 5.707723-3.806183l-1.90154 8.564687s-2.853862 2.853862 0 5.707724c2.853862 1.907744 5.707723 5.713927 7.612366 7.615467 2.853862 2.853862 3.806183 4.758504 0.952321 6.663147-1.90154 0.949219-7.612366 0-8.564687-0.952321-0.952321-1.904642-2.853862-4.758504-3.806183-7.612366s-0.952321-6.663147-0.952321-8.567789c0.952321-1.90154 0-2.853862 0-2.853862s-3.806183 1.904642-3.806183 2.853862c-0.952321 1.904642-4.758504 5.710825-5.707723 9.517008-1.907744 4.758504-3.809285 9.517008-2.856964 11.421651 1.90154 1.90154 10.466227 5.707723 14.275512 6.660045s10.466227 2.853862 14.272411 1.904642V121.813363c-0.949219-0.952321-4.758504-0.952321-5.707724-0.952321-0.952321-0.949219 0-2.853862 0.952322-3.806183 0.949219-1.90154 0-1.90154 1.90154-2.853862s2.853862-2.853862 2.853862-2.853861V103.731668c-2.853862 0.952321-4.755402 1.904642-6.660045 2.853861-1.904642 3.809285-7.612366 6.663147-7.612366 6.663147s-2.853862 0-2.853861-1.904643 2.853862-5.707723 5.707723-7.612365 6.663147-4.758504 8.564687-8.564687c1.904642-1.904642 2.853862-3.806183 2.853862-5.707724v-7.615468c0-0.952321-0.949219-1.904642-0.949219-2.853861-3.806183-3.809285-4.758504-2.853862-4.758505-2.853862zM852.699745 262.660743c0.952321 0.952321 1.90154 1.904642 1.90154 2.853861 1.904642 1.904642 8.567789 2.856964 12.373972 0.955423 3.806183-2.853862 19.030915-15.230936 21.887879-17.132476s4.758504-4.758504 11.418548-4.758504c5.710825 0 9.517008 0.952321 9.517009 4.758504 0 2.853862-0.949219 11.421651-1.901541 13.323192s0 2.853862-0.952321 3.809284c0 0.949219-7.612366 5.707723-12.37087 7.612366-3.809285 1.904642-9.517008 7.612366-11.421651 9.517009s0 3.806183 2.853862 3.806182c2.853862 0.952321 6.663147 0 12.373972 2.853862 4.758504 3.809285 7.612366 10.469329 8.561585 14.275513 1.904642 3.806183 0.955423 6.663147-3.803081 6.663146s-9.517008-2.853862-12.373972-5.707723c-1.90154-2.856964-7.612366-7.615468-10.466227-9.520111-3.809285-0.952321-8.564687-2.853862-10.46933-2.853861-0.952321 0-1.904642 0-4.758504 2.853861-2.853862 1.904642-6.663147 4.758504-12.37087 6.663147V262.660743z m0 88.506936v-38.068033c2.853862 2.853862 5.707723 5.710825 6.660045 8.564687 1.904642 3.809285 4.758504 10.469329 3.806182 15.230935s-6.660045 12.367768-8.561585 13.320089c0 0.952321-0.952321 0.952321-1.904642 0.952322z m-8.564687-99.925485s5.707723 6.660045 8.561585 11.418549V302.633418c-1.90154 0.952321-4.755402 0.952321-7.612366 1.904643-8.561585 0-19.030915-3.806183-24.74174-7.612366-6.663147-3.806183-11.421651-8.564687-11.42165-10.46933s3.809285-6.660045 4.758504-7.612366c1.904642-0.952321 4.758504-0.952321 9.517008-0.952321 4.758504 0.952321 6.663147 1.904642 8.564687 0.952321 1.904642 0 2.853862 0.952321 2.853862-0.952321 0-2.853862-0.949219-6.660045-2.853862-9.517008s-3.806183-8.564687-4.758504-12.37087c0-3.806183 2.853862-5.707723 7.615468-6.663147s9.517008 1.904642 9.517008 1.904643z m8.561585 61.857452v38.068033c-0.949219-0.952321-1.90154-1.904642-2.853862-3.806183-1.90154-1.904642-6.660045-4.758504-5.707723-7.615468v-12.37087c0.949219-3.806183 0-5.707723 0-5.707723s-1.904642-4.761606-0.952321-6.663147c0-2.853862 0-4.758504 0.952321-4.758504 0.949219-0.952321 3.806183-1.904642 3.806183-1.904643l4.758504 4.758505zM974.513108 490.110416s11.421651-3.806183 15.227834-3.806183c3.806183-0.952321 9.517008-4.758504 9.517008-8.561585s-3.809285-7.615468-6.663147-8.567789c-4.758504-0.952321-9.517008 0.952321-13.323191 4.758504-3.806183 2.853862-2.853862 5.707723-5.707723 7.612366s-2.856964 1.904642-2.856964 3.806183 3.806183 4.758504 3.806183 4.758504zM895.52318 528.181551v-13.323191c1.904642 0 3.806183 0.952321 4.758504-1.904643 1.904642-3.806183 1.904642-6.660045-0.952321-8.561585-1.90154-1.904642-3.806183-4.761606-3.806183-6.663146v-14.275513c1.904642-2.853862 4.758504-7.612366 7.615468-7.612366 2.853862-0.952321 5.707723 1.90154 5.707723 1.901541s-1.90154 6.663147-0.952321 10.469329c0 5.707723 0 10.469329 1.904643 13.323191 1.904642 1.90154 8.564687 7.612366 11.42165 10.46933 2.853862 1.90154 7.612366 3.806183 12.37087 2.853862s3.806183-5.707723 1.904643-6.660045c-2.853862-1.904642-4.758504-3.809285-6.663147-5.710825l-7.612366-3.806183c-1.904642 0-1.904642-2.853862-0.952321-3.809285 0.952321-1.90154 4.758504-2.853862 8.564687-2.853862 4.758504 0.952321 8.564687 2.853862 11.421651 6.660045 3.806183 2.853862 8.561585 14.275512 10.466227 16.180155 0.952321 0.952321 3.806183 0.952321 4.758504-0.952322 0-2.853862 0-5.707723-3.806182-10.469329q-2.853862-3.806183-4.758505-7.612366c-1.904642-3.806183-3.806183-2.853862-6.660044-8.564687-1.904642-4.758504-2.853862-8.564687-2.853862-8.564687s-4.761606-1.904642-7.615468-2.853862-3.806183-5.710825-3.806183-8.567789c-0.952321-1.90154 2.853862-5.707723 7.612366-5.707723 5.707723 0 10.469329 0.949219 14.275513 1.90154 3.806183 0 7.612366 3.806183 9.517008 7.615468 1.90154 5.707723 6.660045 18.081695 8.561585 23.792521 1.904642 4.755402 3.809285 12.37087 3.809285 19.983236 0.952321 6.660045 0 8.564687-1.904643 11.418548-0.949219 3.809285-3.806183 6.663147-5.707723 8.567789-1.904642 0.949219-7.615468-0.952321-9.517008-3.809285-1.904642-3.806183-6.663147-3.806183-9.517008-4.758504-2.853862 0-6.663147 1.904642-9.517009 0-2.853862-0.949219-4.758504-2.853862-8.564687-3.806183s-8.564687 0-10.469329 0.952322c-0.952321 0.952321 0 3.806183 2.853861 6.660044 2.856964 1.904642 3.809285 3.809285 3.809285 6.663147q0.952321 2.853862-0.952321 4.758504c-1.904642 2.853862-3.806183 5.707723-7.612366 9.517008-1.904642 2.853862-2.853862 1.90154-3.806183 0-1.904642-0.952321-2.853862-6.663147-3.809285-9.517008 0-2.853862 0-5.707723-1.90154-8.564687-1.904642-3.806183-4.758504-3.806183-7.615468-4.758504z m102.782449-31.404887s-5.710825-0.952321-8.564687-0.952321c-1.904642-0.952321-6.663147 0.952321-6.663147 3.806183 0 1.904642 0 5.710825 0.952321 6.663147 0.952321 1.90154 2.853862 1.90154 3.806183 2.853861 0.952321 1.904642 2.853862 0 2.853862 0s2.853862-0.952321 3.809285-2.853861c1.90154-2.853862 1.90154-4.758504 2.853861-6.663147s0.952321-2.853862 0.952322-2.853862z m15.224731 34.258748s-7.612366-2.853862-9.517008-3.806182c-2.853862 0-9.513906-4.758504-14.27241-5.707724-2.853862-1.904642-7.615468-2.853862-7.615468-2.853861s0 3.803081 1.904642 6.660044c0.952321 1.90154 2.853862 2.853862 2.853862 2.853862s1.904642 10.469329 2.853862 12.37087c0 0.952321 3.809285 8.564687 6.663146 9.517008 3.806183 0 7.612366-0.952321 10.46933-5.707723 2.853862-3.809285 4.758504-3.809285 5.707723-6.663147s0.952321-6.660045 0.952321-6.660045z m-118.00718-47.585041v14.278615h-0.952321s-1.90154 0-3.806183 1.90154c-1.90154 0.952321-1.90154 3.809285-1.90154 5.710825 0.949219 2.853862 0 3.806183 1.90154 7.612366 1.904642 2.853862 2.853862 1.904642 3.806183 1.904643h0.952321v13.323191h-1.90154c-3.809285 0-7.615468 0-12.373972-1.904643s-2.853862-4.758504-5.707724-11.418548c-0.952321-7.612366-1.904642-13.323191-0.952321-15.227834 0.952321-2.853862 7.612366-4.758504 11.418549-6.660045 3.809285-2.853862 4.758504-6.663147 6.663147-7.615467 0.952321 0 1.90154-0.949219 2.853861-1.901541z" fill="#FFFFFF" p-id="5918"></path></svg>